<mxfile host="app.diagrams.net" modified="2022-06-30T09:31:01.470Z" agent="5.0 (Windows NT 10.0; Win64; x64) AppleWebKit/537.36 (KHTML, like Gecko) Chrome/102.0.5005.124 Safari/537.36 Edg/102.0.1245.44" etag="TWxElyrGCEu9JA2PGkP_" version="18.0.2" type="github">
  <diagram id="C5RBs43oDa-KdzZeNtuy" name="Page-1">
    <mxGraphModel dx="1550" dy="867" grid="0" gridSize="10" guides="1" tooltips="1" connect="1" arrows="1" fold="1" page="1" pageScale="1" pageWidth="827" pageHeight="1169" math="0" shadow="0">
      <root>
        <mxCell id="WIyWlLk6GJQsqaUBKTNV-0" />
        <mxCell id="WIyWlLk6GJQsqaUBKTNV-1" parent="WIyWlLk6GJQsqaUBKTNV-0" />
        <mxCell id="wdjLGwGyMTbLoj3bupBq-10" style="edgeStyle=orthogonalEdgeStyle;rounded=0;orthogonalLoop=1;jettySize=auto;html=1;exitX=0.5;exitY=1;exitDx=0;exitDy=0;entryX=0.5;entryY=0;entryDx=0;entryDy=0;fontSize=16;" edge="1" parent="WIyWlLk6GJQsqaUBKTNV-1" source="wdjLGwGyMTbLoj3bupBq-0" target="wdjLGwGyMTbLoj3bupBq-4">
          <mxGeometry relative="1" as="geometry" />
        </mxCell>
        <mxCell id="wdjLGwGyMTbLoj3bupBq-0" value="&lt;font style=&quot;font-size: 16px;&quot;&gt;强ID图计算&lt;/font&gt;" style="rounded=0;whiteSpace=wrap;html=1;" vertex="1" parent="WIyWlLk6GJQsqaUBKTNV-1">
          <mxGeometry x="130" y="140" width="150" height="40" as="geometry" />
        </mxCell>
        <mxCell id="wdjLGwGyMTbLoj3bupBq-12" style="edgeStyle=orthogonalEdgeStyle;rounded=0;orthogonalLoop=1;jettySize=auto;html=1;exitX=0.5;exitY=1;exitDx=0;exitDy=0;entryX=0.5;entryY=0;entryDx=0;entryDy=0;fontSize=16;" edge="1" parent="WIyWlLk6GJQsqaUBKTNV-1" source="wdjLGwGyMTbLoj3bupBq-1" target="wdjLGwGyMTbLoj3bupBq-6">
          <mxGeometry relative="1" as="geometry" />
        </mxCell>
        <mxCell id="wdjLGwGyMTbLoj3bupBq-1" value="&lt;font style=&quot;font-size: 16px;&quot;&gt;弱ID图计算&lt;/font&gt;" style="rounded=0;whiteSpace=wrap;html=1;" vertex="1" parent="WIyWlLk6GJQsqaUBKTNV-1">
          <mxGeometry x="360" y="140" width="150" height="40" as="geometry" />
        </mxCell>
        <mxCell id="wdjLGwGyMTbLoj3bupBq-16" style="edgeStyle=orthogonalEdgeStyle;rounded=0;orthogonalLoop=1;jettySize=auto;html=1;exitX=0.5;exitY=1;exitDx=0;exitDy=0;fontSize=16;" edge="1" parent="WIyWlLk6GJQsqaUBKTNV-1" source="wdjLGwGyMTbLoj3bupBq-2" target="wdjLGwGyMTbLoj3bupBq-7">
          <mxGeometry relative="1" as="geometry" />
        </mxCell>
        <mxCell id="wdjLGwGyMTbLoj3bupBq-2" value="&lt;font style=&quot;font-size: 16px;&quot;&gt;弱ID向强ID挂靠&lt;/font&gt;" style="rounded=0;whiteSpace=wrap;html=1;" vertex="1" parent="WIyWlLk6GJQsqaUBKTNV-1">
          <mxGeometry x="240" y="350" width="150" height="40" as="geometry" />
        </mxCell>
        <mxCell id="wdjLGwGyMTbLoj3bupBq-15" style="edgeStyle=orthogonalEdgeStyle;rounded=0;orthogonalLoop=1;jettySize=auto;html=1;exitX=0.5;exitY=1;exitDx=0;exitDy=0;entryX=0;entryY=0.5;entryDx=0;entryDy=0;fontSize=16;" edge="1" parent="WIyWlLk6GJQsqaUBKTNV-1" source="wdjLGwGyMTbLoj3bupBq-3" target="wdjLGwGyMTbLoj3bupBq-2">
          <mxGeometry relative="1" as="geometry" />
        </mxCell>
        <mxCell id="wdjLGwGyMTbLoj3bupBq-3" value="&lt;span style=&quot;font-size: 16px;&quot;&gt;输出oneid-强id关系&lt;/span&gt;" style="rounded=0;whiteSpace=wrap;html=1;" vertex="1" parent="WIyWlLk6GJQsqaUBKTNV-1">
          <mxGeometry x="115" y="280" width="180" height="40" as="geometry" />
        </mxCell>
        <mxCell id="wdjLGwGyMTbLoj3bupBq-11" style="edgeStyle=orthogonalEdgeStyle;rounded=0;orthogonalLoop=1;jettySize=auto;html=1;exitX=0.5;exitY=1;exitDx=0;exitDy=0;entryX=0.5;entryY=0;entryDx=0;entryDy=0;fontSize=16;" edge="1" parent="WIyWlLk6GJQsqaUBKTNV-1" source="wdjLGwGyMTbLoj3bupBq-4" target="wdjLGwGyMTbLoj3bupBq-3">
          <mxGeometry relative="1" as="geometry" />
        </mxCell>
        <mxCell id="wdjLGwGyMTbLoj3bupBq-4" value="&lt;font style=&quot;font-size: 16px;&quot;&gt;oneid赋值&lt;/font&gt;" style="rounded=0;whiteSpace=wrap;html=1;" vertex="1" parent="WIyWlLk6GJQsqaUBKTNV-1">
          <mxGeometry x="130" y="210" width="150" height="40" as="geometry" />
        </mxCell>
        <mxCell id="wdjLGwGyMTbLoj3bupBq-14" style="edgeStyle=orthogonalEdgeStyle;rounded=0;orthogonalLoop=1;jettySize=auto;html=1;exitX=0.5;exitY=1;exitDx=0;exitDy=0;entryX=1;entryY=0.5;entryDx=0;entryDy=0;fontSize=16;" edge="1" parent="WIyWlLk6GJQsqaUBKTNV-1" source="wdjLGwGyMTbLoj3bupBq-5" target="wdjLGwGyMTbLoj3bupBq-2">
          <mxGeometry relative="1" as="geometry" />
        </mxCell>
        <mxCell id="wdjLGwGyMTbLoj3bupBq-5" value="&lt;font style=&quot;font-size: 16px;&quot;&gt;虚拟子图号-弱ID关系&lt;/font&gt;" style="rounded=0;whiteSpace=wrap;html=1;" vertex="1" parent="WIyWlLk6GJQsqaUBKTNV-1">
          <mxGeometry x="345" y="280" width="180" height="40" as="geometry" />
        </mxCell>
        <mxCell id="wdjLGwGyMTbLoj3bupBq-13" style="edgeStyle=orthogonalEdgeStyle;rounded=0;orthogonalLoop=1;jettySize=auto;html=1;exitX=0.5;exitY=1;exitDx=0;exitDy=0;entryX=0.5;entryY=0;entryDx=0;entryDy=0;fontSize=16;" edge="1" parent="WIyWlLk6GJQsqaUBKTNV-1" source="wdjLGwGyMTbLoj3bupBq-6" target="wdjLGwGyMTbLoj3bupBq-5">
          <mxGeometry relative="1" as="geometry" />
        </mxCell>
        <mxCell id="wdjLGwGyMTbLoj3bupBq-6" value="&lt;font style=&quot;font-size: 16px;&quot;&gt;虚拟子图号赋值&lt;/font&gt;" style="rounded=0;whiteSpace=wrap;html=1;" vertex="1" parent="WIyWlLk6GJQsqaUBKTNV-1">
          <mxGeometry x="360" y="210" width="150" height="40" as="geometry" />
        </mxCell>
        <mxCell id="wdjLGwGyMTbLoj3bupBq-17" style="edgeStyle=orthogonalEdgeStyle;rounded=0;orthogonalLoop=1;jettySize=auto;html=1;exitX=0;exitY=0.5;exitDx=0;exitDy=0;entryX=0.5;entryY=0;entryDx=0;entryDy=0;fontSize=16;" edge="1" parent="WIyWlLk6GJQsqaUBKTNV-1" source="wdjLGwGyMTbLoj3bupBq-7" target="wdjLGwGyMTbLoj3bupBq-8">
          <mxGeometry relative="1" as="geometry" />
        </mxCell>
        <mxCell id="wdjLGwGyMTbLoj3bupBq-18" style="edgeStyle=orthogonalEdgeStyle;rounded=0;orthogonalLoop=1;jettySize=auto;html=1;exitX=1;exitY=0.5;exitDx=0;exitDy=0;fontSize=16;" edge="1" parent="WIyWlLk6GJQsqaUBKTNV-1" source="wdjLGwGyMTbLoj3bupBq-7" target="wdjLGwGyMTbLoj3bupBq-9">
          <mxGeometry relative="1" as="geometry" />
        </mxCell>
        <mxCell id="wdjLGwGyMTbLoj3bupBq-7" value="判断是否能挂上" style="rhombus;whiteSpace=wrap;html=1;fontSize=16;" vertex="1" parent="WIyWlLk6GJQsqaUBKTNV-1">
          <mxGeometry x="220" y="420" width="190" height="80" as="geometry" />
        </mxCell>
        <mxCell id="wdjLGwGyMTbLoj3bupBq-8" value="&lt;font style=&quot;font-size: 16px;&quot;&gt;合并子图&lt;/font&gt;" style="rounded=0;whiteSpace=wrap;html=1;" vertex="1" parent="WIyWlLk6GJQsqaUBKTNV-1">
          <mxGeometry x="100" y="520" width="150" height="40" as="geometry" />
        </mxCell>
        <mxCell id="wdjLGwGyMTbLoj3bupBq-9" value="&lt;font style=&quot;font-size: 16px;&quot;&gt;赋值新的oneid&lt;/font&gt;" style="rounded=0;whiteSpace=wrap;html=1;" vertex="1" parent="WIyWlLk6GJQsqaUBKTNV-1">
          <mxGeometry x="380" y="520" width="150" height="40" as="geometry" />
        </mxCell>
        <mxCell id="wdjLGwGyMTbLoj3bupBq-19" value="是" style="text;html=1;align=center;verticalAlign=middle;resizable=0;points=[];autosize=1;strokeColor=none;fillColor=none;fontSize=16;" vertex="1" parent="WIyWlLk6GJQsqaUBKTNV-1">
          <mxGeometry x="180" y="440" width="30" height="20" as="geometry" />
        </mxCell>
        <mxCell id="wdjLGwGyMTbLoj3bupBq-20" value="否" style="text;html=1;align=center;verticalAlign=middle;resizable=0;points=[];autosize=1;strokeColor=none;fillColor=none;fontSize=16;" vertex="1" parent="WIyWlLk6GJQsqaUBKTNV-1">
          <mxGeometry x="415" y="440" width="30" height="20" as="geometry" />
        </mxCell>
      </root>
    </mxGraphModel>
  </diagram>
</mxfile>
